<svg xmlns="http://www.w3.org/2000/svg" fill-rule="evenodd" clip-rule="evenodd" viewBox="0 0 63 60">
  <path fill="#131313" d="M41.9 17.38h-1.96v-2c0-1.29-1.04-2.37-2.3-2.37H25.66a2.35 2.35 0 00-2.3 2.38v2h-2.14a6 6 0 00-5.9 6.1v15.96a6 6 0 005.9 6.11H41.9a6 6 0 005.9-6.1V23.48a6.03 6.03 0 00-5.9-6.1zm20.3 11.75l-12.82-6.24c0 .2.03.38.03.57v.76l11.26 5.48c.7.35.98 1.2.67 1.9l-6.45 14.25a1.38 1.38 0 01-1.84.7l-5.1-2.48a7.42 7.42 0 01-6.03 3.14h-2.96l12.35 5.98c.7.35 1.53.03 1.83-.7L62.9 31a1.52 1.52 0 00-.7-1.86zM21.22 47.24a7.45 7.45 0 01-6.05-3.2l-5.2 2.54c-.7.34-1.53.03-1.83-.7L1.68 31.63a1.42 1.42 0 01.68-1.9l11.37-5.54v-.7c0-.22 0-.44.03-.66L.8 29.13c-.7.35-.98 1.2-.68 1.9l9.76 21.53a1.38 1.38 0 001.83.7l12.36-5.99h-2.85v-.03zm20.8-28.15c.97.03 1.86.41 2.56 1.02l-4.03 4.17c-.5-.7-1.07-1.32-1.71-1.9L42 19.1zM31.4 21.25c5.44 0 9.84 4.55 9.84 10.19s-4.4 10.2-9.84 10.2c-5.45 0-9.85-4.6-9.85-10.23 0-5.64 4.4-10.16 9.85-10.16zm-2.02-1.53l.6-.63h3.55l-.55.57c-.52-.06-1.04-.12-1.58-.12-.7 0-1.38.06-2.02.18zm10.18-.63l-2.14 2.22c-.77-.48-1.56-.89-2.42-1.17l1.01-1.05h3.55zm-14.59-3.7c0-.38.3-.67.65-.67H37.6c.37 0 .64.32.64.67v.95H24.98v-.95zm-.97 3.7h3.51l-2.14 2.22a11.74 11.74 0 00-3.8 3.92l-.79.83h-3.54L24 19.09zm-7.04 4.4c0-2.44 1.93-4.4 4.25-4.4h.3l-4.55 4.72v-.32zm0 15.96v-.63l2.39-2.47h1.59c.21.44.43.88.67 1.33l-4 4.11c-.4-.7-.65-1.48-.65-2.34zm4.25 4.4c-.88 0-1.71-.28-2.38-.76l3.82-3.95a11 11 0 001.83 1.77l-2.84 2.94h-.43zm6.42 0H24.1L26 41.9c.79.44 1.64.8 2.53 1.01l-.89.95zm6.03 0h-3.55l.58-.6c.25 0 .46.03.7.03 1.14 0 2.24-.19 3.28-.5l-1.01 1.07zm8.47 0l3.97-4.11a4.3 4.3 0 01-3.97 4.11zm4-6.71l-6.48 6.71h-3.55l7.28-7.53h2.75v.82zm0-12.44l-1.31 1.36h-3.21c-.03-.07-.06-.16-.12-.22l4.18-4.31c.3.6.46 1.27.46 2v1.17zM31.41 39.96c4.55 0 8.25-3.83 8.25-8.55 0-4.72-3.7-8.55-8.25-8.55-4.56 0-8.26 3.83-8.26 8.55 0 4.72 3.7 8.55 8.26 8.55zm0-15.07a6.4 6.4 0 016.3 6.52 6.4 6.4 0 01-6.3 6.52 6.4 6.4 0 01-6.3-6.52 6.4 6.4 0 016.3-6.52zm-5.2 6.52a5.29 5.29 0 015.2-5.38c1.13 0 2.17.38 3.02 1.01l-7.25 7.5a5.42 5.42 0 01-.97-3.13z"/>
  <path fill="#EE3D48" d="M43 51.07a22.1 22.1 0 01-11.63 3.33c-4.22 0-8.13-1.2-11.52-3.26l-5.66 2.75a27.22 27.22 0 0034.43-.03l-5.63-2.79zM13.65 8.51a29.2 29.2 0 00-9.84 17.33l4.53-4.94 1.86 1.8c1.5-4.11 4.07-7.7 7.4-10.32l-1.06-1.1a26.19 26.19 0 0129.73 0l-1.05 1.1a23.58 23.58 0 017.33 10.2l2.27-1.46 4.16 4.56a29.44 29.44 0 00-9.81-17.15L51 6.62a32.42 32.42 0 00-39.2-.03l1.86 1.92z"/>
</svg>