<svg width="185" height="185" viewBox="0 0 185 185" fill="none" xmlns="http://www.w3.org/2000/svg">
<g clip-path="url(#clip0)">
<g filter="url(#filter0_d)">
<path d="M155 92.5C155 127.018 127.018 155 92.5 155C57.9822 155 30 127.018 30 92.5C30 57.9822 57.9822 30 92.5 30C127.018 30 155 57.9822 155 92.5ZM55 92.5C55 113.211 71.7893 130 92.5 130C113.211 130 130 113.211 130 92.5C130 71.7893 113.211 55 92.5 55C71.7893 55 55 71.7893 55 92.5Z" fill="#EE3D48"/>
</g>
</g>
<defs>
<filter id="filter0_d" x="0" y="4" width="185" height="185" filterUnits="userSpaceOnUse" color-interpolation-filters="sRGB">
<feFlood flood-opacity="0" result="BackgroundImageFix"/>
<feColorMatrix in="SourceAlpha" type="matrix" values="0 0 0 0 0 0 0 0 0 0 0 0 0 0 0 0 0 0 127 0"/>
<feOffset dy="4"/>
<feGaussianBlur stdDeviation="15"/>
<feColorMatrix type="matrix" values="0 0 0 0 0.933333 0 0 0 0 0.239216 0 0 0 0 0.282353 0 0 0 0.5 0"/>
<feBlend mode="normal" in2="BackgroundImageFix" result="effect1_dropShadow"/>
<feBlend mode="normal" in="SourceGraphic" in2="effect1_dropShadow" result="shape"/>
</filter>
<clipPath id="clip0">
<rect width="185" height="185" fill="white"/>
</clipPath>
</defs>
</svg>
