<svg xmlns="http://www.w3.org/2000/svg" fill="#EE3D48" viewBox="0 0 48 48">
  <path d="M13.5 13.5a10.51 10.51 0 000 21c4.4 0 7.08-2.41 9.14-5.4-.61-.98-1.13-1.96-1.64-2.9-1.84 3.04-3.9 5.3-7.5 5.3a7.5 7.5 0 010-15c2.43 0 3.97.87 5.4 2.34 1.41 1.48 2.62 3.61 3.83 5.86 1.22 2.25 2.46 4.62 4.27 6.52 1.81 1.9 4.3 3.28 7.5 3.28a10.51 10.51 0 000-21c-4.37 0-7.07 2.34-9.14 5.25.61.97 1.18 1.93 1.69 2.86 1.82-2.95 3.86-5.11 7.45-5.11a7.5 7.5 0 010 15 6.73 6.73 0 01-5.3-2.34c-1.4-1.48-2.62-3.61-3.84-5.86-1.23-2.25-2.48-4.62-4.31-6.52a10.24 10.24 0 00-7.55-3.28z"/>
</svg>