<svg xmlns="http://www.w3.org/2000/svg" fill="#EE3D48" viewBox="0 0 48 48">
  <path d="M22.93 32.34a3.19 3.19 0 00-2.22-.84c-2.34 0-3.48.8-4.5 1.93v.04c-.27.29-.6.72-.97 1.23-.35.47-.74 1-1.17 1.51a7.5 7.5 0 01-3.83 2.67l-.02.02-.02.02a6.68 6.68 0 01-5.7-.63c.2.32.42.63.85.9 1.04.7 3.11 1.31 6.9 1.31 4.18 0 8.74-1.05 10.64-2.99L24 36.35l1.11 1.16c1.9 1.94 6.46 2.99 10.64 2.99 3.79 0 5.86-.62 6.9-1.3.43-.28.65-.6.85-.91a6.68 6.68 0 01-5.72.63h-.02v-.04a7.5 7.5 0 01-3.83-2.67c-.44-.52-.83-1.06-1.18-1.53-.37-.5-.7-.92-.96-1.21v-.04a5.38 5.38 0 00-4.5-1.93c-.86 0-1.6.28-2.22.84L24 33.36l-1.07-1.02z"/>
  <path fill-rule="evenodd" d="M.65 6.5c.79-1.3 2.24-2 4.31-2 2.9 0 8.02.78 11.34 1.29l2.06.3c1.2.18 2.02.84 2.6 1.55.47.58.84 1.29 1.13 1.84l.12.22c.72 1.35 1.09 1.72 1.79 1.72s1.07-.37 1.8-1.72l.11-.22c.29-.55.66-1.26 1.13-1.84a4 4 0 012.6-1.54l2.1-.32c3.32-.5 8.42-1.28 11.3-1.28 2.07 0 3.52.7 4.3 2C48 7.56 48 8.8 48 9.38v.07c0 3.02-1.67 7.34-4.26 10.86C41.15 23.83 37.3 27 32.65 27c-1.9 0-3.35-.3-4.48-.85a6.42 6.42 0 01-2.37-2 18.58 18.58 0 01-.62-.86c-.17-.25-.3-.4-.41-.52-.15-.15-.31-.27-.77-.27s-.62.12-.77.27c-.11.11-.24.27-.41.52l-.14.2c-.14.2-.3.44-.48.67a6.42 6.42 0 01-2.37 1.99c-1.13.54-2.57.85-4.48.85-4.65 0-8.5-3.17-11.1-6.68C1.68 16.8 0 12.48 0 9.46V9.4c0-.59 0-1.82.65-2.9zm2.56 1.55c-.18.3-.21.73-.21 1.41 0 2.17 1.31 5.88 3.67 9.08S12.11 24 15.35 24c1.6 0 2.56-.26 3.17-.55.59-.29.95-.66 1.3-1.1l.35-.5.2-.29c.2-.28.44-.61.75-.92.7-.7 1.6-1.14 2.88-1.14 1.27 0 2.18.44 2.88 1.14a6.73 6.73 0 01.95 1.2l.36.5c.34.45.7.82 1.3 1.1.6.3 1.56.56 3.16.56 3.25 0 6.32-2.26 8.68-5.46 2.36-3.2 3.67-6.9 3.67-9.08 0-.68-.03-1.11-.21-1.41-.08-.13-.37-.55-1.75-.55-2.62 0-7.32.71-10.66 1.22l-2.32.35c-.23.03-.43.13-.69.46-.27.33-.5.76-.8 1.34l-.13.24c-.64 1.21-1.77 3.31-4.44 3.31-2.67 0-3.8-2.1-4.44-3.31l-.13-.24a8.57 8.57 0 00-.8-1.34c-.26-.33-.46-.43-.69-.46l-2.28-.34C12.33 8.22 7.6 7.5 4.96 7.5c-1.38 0-1.67.42-1.75.55zm7.3 5.66c.07.53.36 1.55 1.02 2.48.72 1 1.8 1.81 3.47 1.81 1.64 0 2.3-1.03 2.3-1.62 0-.63-.43-1.32-1.6-1.95a8.37 8.37 0 00-3.7-.93c-.84 0-1.28.12-1.48.21zm-1.63-2.53c.8-.48 1.86-.68 3.12-.68 1.58 0 3.53.43 5.13 1.29 1.57.84 3.18 2.34 3.18 4.6C20.3 19.02 17.86 21 15 21a7.06 7.06 0 01-5.9-3.07 8.4 8.4 0 01-1.6-4.43c0-.96.51-1.8 1.38-2.32zm22.05.61c1.6-.86 3.55-1.29 5.13-1.29 1.25 0 2.31.2 3.11.68a2.68 2.68 0 011.39 2.32 8.4 8.4 0 01-1.6 4.43 7.06 7.06 0 01-5.9 3.07c-2.86 0-5.31-1.97-5.31-4.62 0-2.25 1.61-3.75 3.18-4.59zm1.42 2.64c-1.16.63-1.6 1.32-1.6 1.95 0 .59.67 1.62 2.3 1.62 1.67 0 2.75-.8 3.47-1.8.67-.94.96-1.96 1.02-2.49-.2-.09-.64-.21-1.48-.21-1.12 0-2.58.32-3.7.93z" clip-rule="evenodd"/>
  <path d="M0 9.75h3V43.5H0z"/>
</svg>