<svg xmlns="http://www.w3.org/2000/svg" fill="#EE3D48" viewBox="0 0 42 35">
  <path d="M.5.5v24h5.4L5.74 26l1.5.14 3.42.38-.23 1.3-.28 1.46 1.45.28 23.58 4.5 1.45.28.28-1.45 4.03-20.72.33-1.45-1.5-.28-5.06-.99L35 6.5l.14-1.45-1.45-.2-6.19-.74V.5H.5zm3 3h21v18h-21v-18zm10.5 3a4.52 4.52 0 00-3.6 7.22A5.96 5.96 0 008 18.5h3c0-1.79 1.21-3 3-3s3 1.21 3 3h3c0-1.96-.94-3.69-2.4-4.78A4.53 4.53 0 0014 6.5zm13.5.6l4.36.57-1.83 17.86-9.6-1.03h7.07V7.1zM14 9.5c.84 0 1.5.66 1.5 1.5s-.66 1.5-1.5 1.5-1.5-.66-1.5-1.5.66-1.5 1.5-1.5zm20.4 2.95l3.37.66-3.52 17.72-20.58-3.94v-.1l17.58 1.88 1.5.19.14-1.5 1.5-14.9z"/>
</svg>