<svg xmlns="http://www.w3.org/2000/svg" fill="#EE3D48" viewBox="0 0 32 32">
  <path d="M7.12 7.03c-.41.05-.91.22-1.32.45-.41.24-1.02.85-1.27 1.3-.25.42-.43.94-.37 1.04.05.06 11.67 7.3 11.82 7.36.06.03 11.79-7.25 11.86-7.36.03-.05.01-.17-.06-.4a3.52 3.52 0 00-.9-1.39 2.53 2.53 0 00-.84-.63c-.88-.43.08-.39-9.83-.4-4.82 0-8.91.01-9.1.03z"/>
  <path d="M4 16.92c0 5.17 0 5.11.23 5.76a3.66 3.66 0 002.53 2.23c.34.09.86.09 9.24.09 8.39 0 8.9 0 9.24-.09a3.6 3.6 0 002.55-2.3c.21-.63.22-.7.2-5.73v-4.79l-5.59 3.46c-3.07 1.9-5.68 3.52-5.8 3.58-.32.17-.7.2-1.02.09a210.9 210.9 0 01-5.88-3.6L4.04 12.1C4 12.1 4 14.26 4 16.92z"/>
</svg>